<?xml version="1.0" standalone="no"?>
<!DOCTYPE svg PUBLIC "-//W3C//DTD SVG 20010904//EN"
 "http://www.w3.org/TR/2001/REC-SVG-20010904/DTD/svg10.dtd">
<svg version="1.0" xmlns="http://www.w3.org/2000/svg"
 width="718.000000pt" height="1280.000000pt" viewBox="0 0 718.000000 1280.000000"
 preserveAspectRatio="xMidYMid meet">
<g transform="translate(0.000000,1280.000000) scale(0.100000,-0.100000)"
fill="#000000" stroke="none">
<path d="M3680 12797 c-3 -3 -70 -12 -150 -22 -355 -40 -646 -126 -950 -280
-695 -355 -1159 -992 -1265 -1740 -19 -129 -19 -421 0 -550 34 -244 99 -456
204 -672 166 -339 394 -616 697 -844 352 -265 830 -454 1264 -500 58 -6 130
-14 160 -18 l55 -6 3 -945 c1 -519 -2 -948 -6 -952 -5 -5 -344 90 -753 211
-2379 701 -2857 841 -2876 841 -12 0 -31 -12 -42 -27 -19 -23 -20 -29 -8 -47
8 -11 20 -24 28 -28 8 -5 824 -247 1814 -538 990 -292 1810 -534 1823 -540
l22 -10 0 -1042 0 -1043 -1337 -1970 c-1037 -1528 -1338 -1978 -1341 -2006 -3
-30 1 -38 22 -52 21 -14 29 -15 46 -5 12 7 611 883 1332 1946 873 1286 1316
1932 1326 1930 8 -2 246 -436 534 -978 285 -536 743 -1395 1016 -1909 361
-678 503 -936 519 -944 37 -16 73 5 73 44 0 21 -102 223 -334 657 -183 345
-651 1224 -1040 1954 l-706 1327 0 1049 c0 857 2 1052 13 1060 7 7 756 262
1663 567 1246 420 1655 562 1673 580 23 23 24 25 7 49 -9 14 -26 28 -39 31
-14 4 -594 -187 -1656 -545 -899 -303 -1641 -548 -1648 -546 -19 8 -19 1858 0
1873 6 6 66 13 132 17 722 41 1418 387 1844 916 267 332 435 721 486 1130 23
176 16 453 -14 621 -127 703 -575 1301 -1233 1644 -296 154 -597 246 -958 291
-135 17 -391 30 -400 21z m315 -127 c604 -52 1154 -299 1556 -700 180 -179
307 -354 414 -569 138 -277 209 -546 222 -841 19 -467 -129 -933 -424 -1332
-98 -132 -309 -344 -440 -441 -583 -432 -1303 -594 -2021 -456 -387 75 -783
259 -1088 505 -177 143 -358 347 -479 539 -469 744 -428 1639 107 2363 90 122
304 337 428 430 496 369 1125 553 1725 502z"/>
<path d="M3115 11368 c-86 -11 -179 -60 -251 -132 -175 -176 -177 -430 -4
-610 117 -122 270 -171 415 -132 131 35 246 129 305 250 30 60 35 81 38 163 4
79 1 103 -18 156 -27 73 -62 127 -122 183 -105 101 -224 141 -363 122z m204
-143 c71 -39 144 -121 171 -193 76 -199 -91 -434 -309 -435 -175 -2 -336 159
-335 333 0 134 95 263 232 315 62 24 177 14 241 -20z"/>
<path d="M4397 11368 c-131 -17 -277 -126 -337 -252 -82 -172 -46 -364 93
-500 191 -186 450 -179 632 16 99 106 139 230 117 359 -42 243 -265 410 -505
377z m212 -148 c113 -60 183 -171 185 -289 1 -174 -161 -336 -335 -334 -85 0
-161 34 -227 100 -74 74 -97 130 -97 233 0 72 4 93 27 135 44 85 128 157 218
186 14 5 57 7 96 5 57 -2 82 -9 133 -36z"/>
<path d="M5079 9719 c-303 -261 -679 -426 -1061 -468 -464 -51 -977 100 -1362
403 -81 63 -136 61 -136 -5 0 -20 13 -39 48 -69 120 -107 393 -262 582 -330
99 -36 282 -83 395 -102 107 -17 477 -17 575 0 407 72 758 239 1051 501 76 68
92 101 64 131 -31 35 -58 24 -156 -61z"/>
</g>
</svg>
