<?xml version="1.0" encoding="UTF-8" standalone="no"?>
<svg
   xmlns:dc="http://purl.org/dc/elements/1.1/"
   xmlns:cc="http://creativecommons.org/ns#"
   xmlns:rdf="http://www.w3.org/1999/02/22-rdf-syntax-ns#"
   xmlns:svg="http://www.w3.org/2000/svg"
   xmlns="http://www.w3.org/2000/svg"
   xmlns:sodipodi="http://sodipodi.sourceforge.net/DTD/sodipodi-0.dtd"
   xmlns:inkscape="http://www.inkscape.org/namespaces/inkscape"
   id="Capa_1"
   enable-background="new 0 0 515.32 515.32"
   height="512"
   viewBox="0 0 515.32 515.32"
   width="512"
   version="1.1"
   sodipodi:docname="mushroom.svg"
   inkscape:version="1.0.1 (3bc2e813f5, 2020-09-07)">
  <metadata
     id="metadata210">
    <rdf:RDF>
      <cc:Work
         rdf:about="">
        <dc:format>image/svg+xml</dc:format>
        <dc:type
           rdf:resource="http://purl.org/dc/dcmitype/StillImage" />
        <dc:title></dc:title>
      </cc:Work>
    </rdf:RDF>
  </metadata>
  <defs
     id="defs208" />
  <sodipodi:namedview
     pagecolor="#ffffff"
     bordercolor="#666666"
     borderopacity="1"
     objecttolerance="10"
     gridtolerance="10"
     guidetolerance="10"
     inkscape:pageopacity="0"
     inkscape:pageshadow="2"
     inkscape:window-width="1920"
     inkscape:window-height="1017"
     id="namedview206"
     showgrid="false"
     inkscape:snap-text-baseline="false"
     inkscape:zoom="1.3867188"
     inkscape:cx="277.51532"
     inkscape:cy="227.15493"
     inkscape:window-x="1432"
     inkscape:window-y="-8"
     inkscape:window-maximized="1"
     inkscape:current-layer="Capa_1">
    <inkscape:grid
       type="xygrid"
       id="grid213" />
  </sodipodi:namedview>
  <g
     id="g203"
     transform="translate(3.6290141,0.72580282)">
    <g
       id="g113">
      <path
         d="M 25.012,368.15 256,448.16 486.988,368.15 C 503.017,334.699 512,297.23 512,257.66 512,116.275 397.385,1.66 256,1.66 114.615,1.66 0,116.275 0,257.66 c 0,39.57 8.983,77.039 25.012,110.49 z"
         fill="#603f42"
         id="path111" />
    </g>
    <g
       id="g117">
      <path
         d="m 223.571,247.66 h -31.888 -31.888 c 0,0 -30.463,49.454 -30.463,173.601 h 62.351 62.351 c 0,-124.147 -30.463,-173.601 -30.463,-173.601 z"
         fill="#e6f0ff"
         id="path115" />
    </g>
    <g
       id="g121">
      <path
         d="m 193.11,297.125 c 6.16,24.304 25.457,42.903 57.443,55.476 C 242.561,278.507 223.571,247.66 223.571,247.66 h -31.888 -31.888 c 0,0 -30.463,49.454 -30.463,173.601 h 50 c 0,-56.905 6.401,-98.106 13.334,-126.056 0.145,0.642 0.283,1.287 0.444,1.92 z"
         fill="#c5def8"
         id="path119" />
    </g>
    <g
       id="g125">
      <path
         d="m 191.683,1.66 c -135.349,0 -206.322,130.2 -189.152,197.937 17.169,67.737 143.571,76.892 189.152,76.892 45.581,0 171.983,-9.155 189.152,-76.892 C 398.005,131.86 327.032,1.66 191.683,1.66 Z"
         fill="#e80054"
         id="path123" />
    </g>
    <g
       id="g129">
      <path
         d="m 191.683,1.66 c -135.349,0 -206.321,130.2 -189.152,197.937 17.169,67.737 143.571,76.892 189.152,76.892 45.581,0 171.983,-9.155 189.152,-76.892 5.685,-22.428 1.698,-51.703 -11.081,-80.833 -3.043,-0.151 -6.138,-0.234 -9.292,-0.234 -72.832,0 -116.073,41.594 -135.366,66.387 -16.774,21.556 -27.981,46.215 -32.385,69.551 C 58.711,178.127 98.353,49.995 191.683,1.66 Z"
         fill="#cc0053"
         id="path127" />
    </g>
    <g
       id="g133">
      <ellipse
         cx="268.797"
         cy="129.836"
         fill="#e6f0ff"
         rx="72.475998"
         ry="55.833"
         id="ellipse131" />
    </g>
    <g
       id="g137">
      <path
         d="m 231.153,177.556 c 10.972,5.148 23.858,8.114 37.644,8.114 40.028,0 72.476,-24.997 72.476,-55.833 0,-3.477 -0.433,-6.874 -1.223,-10.175 -54.312,6.098 -89.618,35.702 -108.897,57.894 z"
         fill="#c5def8"
         id="path135" />
    </g>
    <g
       id="g141">
      <ellipse
         cx="146.472"
         cy="57.493"
         fill="#e6f0ff"
         rx="40.976002"
         ry="31.566999"
         id="ellipse139" />
    </g>
    <g
       id="g145">
      <ellipse
         cx="98.931999"
         cy="183.364"
         fill="#e6f0ff"
         rx="65.207001"
         ry="50.233002"
         id="ellipse143" />
    </g>
    <g
       id="g149">
      <path
         d="m 117.052,79.455 c 8.519,-19.615 21.767,-37.669 38.46,-52.748 -2.91,-0.505 -5.933,-0.78 -9.04,-0.78 -22.631,0 -40.976,14.133 -40.976,31.567 0,8.538 4.408,16.279 11.556,21.961 z"
         fill="#c5def8"
         id="path147" />
    </g>
    <g
       id="g153">
      <path
         d="m 98.932,233.598 c 18.139,0 34.543,-5.71 46.363,-14.919 -26.018,-26.625 -37.894,-56.221 -38.883,-85.209 -2.456,-0.216 -4.949,-0.339 -7.48,-0.339 -36.013,0 -65.207,22.49 -65.207,50.233 0,27.743 29.194,50.234 65.207,50.234 z"
         fill="#c5def8"
         id="path151" />
    </g>
    <g
       id="g157">
      <path
         d="m 256,461.528 h 154.83 l 0.005,10e-4 c 32.233,-24.52 58.481,-56.502 76.153,-93.38 -111.602,3.037 -171.296,26.35 -230.988,49.663 z"
         fill="#85d249"
         id="path155" />
    </g>
    <g
       id="g161">
      <path
         d="m 412.856,446.666 c -56.835,-7.749 -96.588,-21.631 -136.127,-36.887 -6.962,2.657 -13.846,5.345 -20.729,8.033 v 43.716 h 154.83 l 0.005,10e-4 c 5.416,-4.12 10.646,-8.468 15.712,-12.997 z"
         fill="#60b550"
         id="path159" />
    </g>
    <g
       id="g165">
      <path
         d="m 386.225,321.281 h -25.762 -25.762 c 0,0 -24.61,39.953 -24.61,140.249 h 50.372 50.372 c 0,-100.296 -24.61,-140.249 -24.61,-140.249 z"
         fill="#e6f0ff"
         id="path163" />
    </g>
    <g
       id="g169">
      <path
         d="m 360.463,370.559 c 6.468,0 22.233,-0.264 41.565,-2.39 -7.063,-32.694 -15.803,-46.888 -15.803,-46.888 h -25.762 -25.762 c 0,0 -24.61,39.953 -24.61,140.249 h 40 c 0,-39.092 3.739,-69.015 8.302,-90.98 0.762,0.006 1.465,0.009 2.07,0.009 z"
         fill="#c5def8"
         id="path167" />
    </g>
    <g
       id="g173">
      <path
         d="m 360.463,133.53 c -109.346,0 -166.683,105.186 -152.813,159.91 13.871,54.724 115.988,62.119 152.813,62.119 36.824,0 138.942,-7.396 152.813,-62.119 13.87,-54.724 -43.468,-159.91 -152.813,-159.91 z"
         fill="#ff4155"
         id="path171" />
    </g>
    <g
       id="g177">
      <path
         d="m 360.463,133.53 c -109.346,0 -166.683,105.186 -152.813,159.91 13.871,54.724 115.988,62.119 152.813,62.119 9.312,0 22.803,-0.475 37.983,-2.067 C 273.478,281.925 311.414,173.725 360.463,133.53 Z"
         fill="#e80054"
         id="path175" />
    </g>
    <g
       id="g181">
      <ellipse
         cx="431.151"
         cy="273.603"
         fill="#e6f0ff"
         rx="68.445999"
         ry="52.728001"
         id="ellipse179" />
    </g>
    <g
       id="g185">
      <path
         d="M 410.83,461.528 C 367.834,494.233 314.189,513.66 256,513.66 154.185,513.66 66.257,454.219 25.012,368.15 c 194.728,5.297 231.421,72.327 385.818,93.378 z"
         fill="#a3ea6e"
         id="path183" />
    </g>
    <g
       id="g189">
      <path
         d="M 61.357,369.96 C 49.868,369.112 37.783,368.497 25.012,368.149 66.257,454.219 154.185,513.66 256,513.66 c 58.189,0 111.834,-19.427 154.83,-52.132 C 237.66,514.397 109,439.66 61.357,369.96 Z"
         fill="#85d249"
         id="path187" />
    </g>
    <g
       id="g193">
      <ellipse
         cx="336.04401"
         cy="186.06799"
         fill="#e6f0ff"
         rx="40.976002"
         ry="31.566999"
         id="ellipse191" />
    </g>
    <g
       id="g197">
      <path
         d="m 315.628,213.433 c 3.454,-22.219 12.87,-42.573 24.883,-58.742 -1.468,-0.123 -2.957,-0.19 -4.467,-0.19 -22.631,0 -40.976,14.133 -40.976,31.567 0,11.705 8.276,21.914 20.56,27.365 z"
         fill="#c5def8"
         id="path195" />
    </g>
    <g
       id="g201">
      <ellipse
         cx="268.405"
         cy="288.05899"
         fill="#c5def8"
         rx="25.198999"
         ry="19.412001"
         id="ellipse199" />
    </g>
  </g>
  <rect
     id="rect221"
     width="462.33643"
     height="169.83788"
     x="28.306311"
     y="326.6113"
     style="stroke-width:1.00648;fill:#f2f2f2;fill-opacity:1;opacity:0.56" />
  <text
     xml:space="preserve"
     style="font-style:normal;font-weight:normal;font-size:60.145px;line-height:1.25;font-family:sans-serif;fill:#000000;fill-opacity:1;stroke:none;stroke-width:1.50362"
     x="98.123932"
     y="363.36337"
     id="text225"
     transform="scale(0.91709412,1.0904006)"><tspan
       sodipodi:role="line"
       id="tspan223"
       x="98.123932"
       y="363.36337"
       style="stroke-width:1.50362">IMAGEN NO </tspan><tspan
       sodipodi:role="line"
       x="98.123932"
       y="438.54462"
       style="stroke-width:1.50362"
       id="tspan227">DISPONIBLE</tspan></text>
</svg>
