<svg id="Capa_1" enable-background="new 0 0 515.32 515.32" height="512" viewBox="0 0 515.32 515.32" width="512" xmlns="http://www.w3.org/2000/svg"><g><g><path d="m25.012 368.15 230.988 80.01 230.988-80.01c16.029-33.451 25.012-70.92 25.012-110.49 0-141.385-114.615-256-256-256s-256 114.615-256 256c0 39.57 8.983 77.039 25.012 110.49z" fill="#603f42"/></g><g><path d="m223.571 247.66h-31.888-31.888s-30.463 49.454-30.463 173.601h62.351 62.351c0-124.147-30.463-173.601-30.463-173.601z" fill="#e6f0ff"/></g><g><path d="m193.11 297.125c6.16 24.304 25.457 42.903 57.443 55.476-7.992-74.094-26.982-104.941-26.982-104.941h-31.888-31.888s-30.463 49.454-30.463 173.601h50c0-56.905 6.401-98.106 13.334-126.056.145.642.283 1.287.444 1.92z" fill="#c5def8"/></g><g><path d="m191.683 1.66c-135.349 0-206.322 130.2-189.152 197.937 17.169 67.737 143.571 76.892 189.152 76.892s171.983-9.155 189.152-76.892c17.17-67.737-53.803-197.937-189.152-197.937z" fill="#e80054"/></g><g><path d="m191.683 1.66c-135.349 0-206.321 130.2-189.152 197.937s143.571 76.892 189.152 76.892 171.983-9.155 189.152-76.892c5.685-22.428 1.698-51.703-11.081-80.833-3.043-.151-6.138-.234-9.292-.234-72.832 0-116.073 41.594-135.366 66.387-16.774 21.556-27.981 46.215-32.385 69.551-134-76.341-94.358-204.473-1.028-252.808z" fill="#cc0053"/></g><g><ellipse cx="268.797" cy="129.836" fill="#e6f0ff" rx="72.476" ry="55.833"/></g><g><path d="m231.153 177.556c10.972 5.148 23.858 8.114 37.644 8.114 40.028 0 72.476-24.997 72.476-55.833 0-3.477-.433-6.874-1.223-10.175-54.312 6.098-89.618 35.702-108.897 57.894z" fill="#c5def8"/></g><g><ellipse cx="146.472" cy="57.493" fill="#e6f0ff" rx="40.976" ry="31.567"/></g><g><ellipse cx="98.932" cy="183.364" fill="#e6f0ff" rx="65.207" ry="50.233"/></g><g><path d="m117.052 79.455c8.519-19.615 21.767-37.669 38.46-52.748-2.91-.505-5.933-.78-9.04-.78-22.631 0-40.976 14.133-40.976 31.567 0 8.538 4.408 16.279 11.556 21.961z" fill="#c5def8"/></g><g><path d="m98.932 233.598c18.139 0 34.543-5.71 46.363-14.919-26.018-26.625-37.894-56.221-38.883-85.209-2.456-.216-4.949-.339-7.48-.339-36.013 0-65.207 22.49-65.207 50.233s29.194 50.234 65.207 50.234z" fill="#c5def8"/></g><g><path d="m256 461.528h154.83l.005.001c32.233-24.52 58.481-56.502 76.153-93.38-111.602 3.037-171.296 26.35-230.988 49.663z" fill="#85d249"/></g><g><path d="m412.856 446.666c-56.835-7.749-96.588-21.631-136.127-36.887-6.962 2.657-13.846 5.345-20.729 8.033v43.716h154.83l.005.001c5.416-4.12 10.646-8.468 15.712-12.997z" fill="#60b550"/></g><g><path d="m386.225 321.281h-25.762-25.762s-24.61 39.953-24.61 140.249h50.372 50.372c0-100.296-24.61-140.249-24.61-140.249z" fill="#e6f0ff"/></g><g><path d="m360.463 370.559c6.468 0 22.233-.264 41.565-2.39-7.063-32.694-15.803-46.888-15.803-46.888h-25.762-25.762s-24.61 39.953-24.61 140.249h40c0-39.092 3.739-69.015 8.302-90.98.762.006 1.465.009 2.07.009z" fill="#c5def8"/></g><g><path d="m360.463 133.53c-109.346 0-166.683 105.186-152.813 159.91 13.871 54.724 115.988 62.119 152.813 62.119 36.824 0 138.942-7.396 152.813-62.119 13.87-54.724-43.468-159.91-152.813-159.91z" fill="#ff4155"/></g><g><path d="m360.463 133.53c-109.346 0-166.683 105.186-152.813 159.91 13.871 54.724 115.988 62.119 152.813 62.119 9.312 0 22.803-.475 37.983-2.067-124.968-71.567-87.032-179.767-37.983-219.962z" fill="#e80054"/></g><g><ellipse cx="431.151" cy="273.603" fill="#e6f0ff" rx="68.446" ry="52.728"/></g><g><path d="m410.83 461.528c-42.996 32.705-96.641 52.132-154.83 52.132-101.815 0-189.743-59.441-230.988-145.51 194.728 5.297 231.421 72.327 385.818 93.378z" fill="#a3ea6e"/></g><g><path d="m61.357 369.96c-11.489-.848-23.574-1.463-36.345-1.811 41.245 86.07 129.173 145.511 230.988 145.511 58.189 0 111.834-19.427 154.83-52.132-173.17 52.869-301.83-21.868-349.473-91.568z" fill="#85d249"/></g><g><ellipse cx="336.044" cy="186.068" fill="#e6f0ff" rx="40.976" ry="31.567"/></g><g><path d="m315.628 213.433c3.454-22.219 12.87-42.573 24.883-58.742-1.468-.123-2.957-.19-4.467-.19-22.631 0-40.976 14.133-40.976 31.567 0 11.705 8.276 21.914 20.56 27.365z" fill="#c5def8"/></g><g><ellipse cx="268.405" cy="288.059" fill="#c5def8" rx="25.199" ry="19.412"/></g></g></svg>