<?xml version="1.0" encoding="iso-8859-1"?>
<!-- Generator: Adobe Illustrator 19.0.0, SVG Export Plug-In . SVG Version: 6.00 Build 0)  -->
<svg version="1.1" id="Capa_1" xmlns="http://www.w3.org/2000/svg" xmlns:xlink="http://www.w3.org/1999/xlink" x="0px" y="0px"
	 viewBox="0 0 512 512" style="enable-background:new 0 0 512 512;" xml:space="preserve">
<circle style="fill:#97CC52;" cx="256" cy="256" r="256"/>
<path style="fill:#60C344;" d="M512,256c0-0.23-0.008-0.459-0.009-0.689L358.134,101.454L139.06,186.311l65.84,65.84L96.167,298.186
	l63.192,63.192L139.06,435l73.276,73.276C226.527,510.714,241.113,512,256,512C397.385,512,512,397.385,512,256z"/>
<polygon style="fill:#FFFFFF;" points="295.359,435 216.641,435 227.333,146.5 284.667,146.5 "/>
<polygon style="fill:#E0E0E0;" points="284.667,146.5 255,146.5 255,435 295.359,435 "/>
<path style="fill:#8C6239;" d="M381.667,159.333c0,54.86-56.263,31.333-125.667,31.333s-125.667,23.527-125.667-31.333
	S186.596,60,256,60S381.667,104.473,381.667,159.333z"/>
<path style="fill:#754C24;" d="M256,60c-0.334,0-0.666,0.008-1,0.01v130.662c0.334-0.001,0.666-0.005,1-0.005
	c69.404,0,125.667,23.527,125.667-31.333S325.404,60,256,60z"/>
<polygon style="fill:#E0E0E0;" points="349.572,435 301.626,435 308.139,259.283 343.06,259.284 "/>
<polygon style="fill:#C0C0C0;" points="343.06,259.284 325,259.283 325,435 349.572,435 "/>
<path style="fill:#754C24;" d="M402.141,264.838c0,33.414-34.269,19.084-76.542,19.083c-42.273,0-76.542,14.329-76.541-19.085
	c0-33.414,34.269-60.5,76.542-60.5S402.142,231.425,402.141,264.838z"/>
<path style="fill:#603813;" d="M325.6,204.337c-0.201,0-0.399,0.011-0.6,0.012v79.576c0.2,0,0.399-0.003,0.6-0.003
	c42.273,0,76.542,14.33,76.542-19.083S367.873,204.337,325.6,204.337z"/>
<polygon style="fill:#E0E0E0;" points="180.729,435 139.06,435 144.721,282.288 175.07,282.288 "/>
<polygon style="fill:#C0C0C0;" points="175.07,282.288 159,282.288 159,435 180.729,435 "/>
<path style="fill:#754C24;" d="M226.417,286.189c0,29.039-29.783,16.585-66.521,16.585s-66.521,12.453-66.521-16.586
	s29.783-52.58,66.521-52.58S226.417,257.15,226.417,286.189z"/>
<path style="fill:#603813;" d="M159.896,233.608c-0.3,0-0.596,0.015-0.896,0.018v69.152c0.298-0.001,0.596-0.004,0.895-0.004
	c36.739,0,66.521,12.454,66.521-16.585C226.417,257.15,196.634,233.609,159.896,233.608z"/>
<g>
</g>
<g>
</g>
<g>
</g>
<g>
</g>
<g>
</g>
<g>
</g>
<g>
</g>
<g>
</g>
<g>
</g>
<g>
</g>
<g>
</g>
<g>
</g>
<g>
</g>
<g>
</g>
<g>
</g>
</svg>
